<svg width="300" height="53" viewBox="0 0 300 53" xmlns="http://www.w3.org/2000/svg" focusable="false">
  <g fill="none">
    <path d="M36.51 51.49a42.78 42.78 0 01-10.23 1.15 29.81 29.81 0 01-10.57-1.82 24.43 24.43 0 01-8.31-5.14A23.27 23.27 0 012 37.75 28.13 28.13 0 012 17a23.1 23.1 0 015.51-7.93 24.3 24.3 0 018.24-5 29.06 29.06 0 0110.2-1.75A31.32 31.32 0 0136.48 4a21.71 21.71 0 017.9 4.63L37.09 17a12.64 12.64 0 00-4.46-3.21 15 15 0 00-6.28-1.25 14 14 0 00-5.61 1.11 13.43 13.43 0 00-4.46 3.11 14.11 14.11 0 00-2.94 4.73 16.51 16.51 0 00-1.05 6 18.77 18.77 0 001 6.08A13.1 13.1 0 0016 38.29a12.82 12.82 0 004.6 3.11 16.47 16.47 0 006.25 1.11 23.76 23.76 0 003.85-.3 14.67 14.67 0 003.37-1v-8.7H25v-9.32h19.72v25.33a36.27 36.27 0 01-8.21 2.97zm34.56-24.58a8.72 8.72 0 00-1.46-.28c-.467-.04-.927-.06-1.38-.06a7.88 7.88 0 00-3.75.81 7.73 7.73 0 00-2.43 2 7.39 7.39 0 00-1.32 2.49 8.37 8.37 0 00-.4 2.36v17.25H49.25V17.83h10.67v4.86h.14a11 11 0 013.64-4.22 9.39 9.39 0 015.47-1.63c.441-.002.882.021 1.32.07a4.78 4.78 0 011.05.2l-.47 9.8z" fill="#233143"/>
    <path d="M115.77 40.28a22.29 22.29 0 00-5.45-7.55 24.3 24.3 0 00-8-4.73 29.71 29.71 0 00-19.41 0 23.66 23.66 0 00-8 4.73 22.46 22.46 0 00-5.41 7.55 24 24 0 00-2 10v1.15H82a10.94 10.94 0 01-.05-1.15 13.63 13.63 0 01.68-4.28 11 11 0 012-3.67 10 10 0 013.32-2.6 11.24 11.24 0 019.27 0 10.64 10.64 0 013.37 2.6 11.35 11.35 0 012.09 3.67 13.14 13.14 0 01.73 4.28c0 .384-.02.768-.06 1.15h14.4v-1.15a24 24 0 00-1.98-10z" fill="#F8AD1D"/>
    <path fill="#233143" d="M160.38 51.43h-11.14l-6.62-20.94h-.14L136 51.43h-11.15l-11.62-33.64h12L131 39.07h.2l6-21.28h11.15l6.21 21.28h.14l5.88-21.28h11.48zm12.23-29.05a19.45 19.45 0 016.93-4.26 23.82 23.82 0 018.07-1.42 21.49 21.49 0 017.19 1 10.71 10.71 0 014.76 3.3 13.78 13.78 0 012.67 5.54 32.4 32.4 0 01.85 7.94v17h-10.14v-3.63h-.2a8.37 8.37 0 01-3.88 3.24c-1.78.772-3.7 1.163-5.64 1.15a17.286 17.286 0 01-4.19-.54 12.25 12.25 0 01-3.95-1.76 9.39 9.39 0 01-2.94-3.24 10 10 0 01-1.15-5 8.5 8.5 0 012-5.88 13.12 13.12 0 015.14-3.44 27.13 27.13 0 017-1.62 71.68 71.68 0 017.5-.41v-.54a4.12 4.12 0 00-1.76-3.68 7.54 7.54 0 00-4.34-1.13 10.67 10.67 0 00-4.53 1 14.35 14.35 0 00-3.75 2.43l-5.64-6.05zm20.33 14.39h-1.41c-1.22 0-2.45 0-3.69.17a14.84 14.84 0 00-3.31.64 6.17 6.17 0 00-2.39 1.42 3.19 3.19 0 00-.95 2.4 2.93 2.93 0 00.44 1.62 3.37 3.37 0 001.11 1.08 4.68 4.68 0 001.56.58 9.14 9.14 0 001.69.17 6.82 6.82 0 005.16-1.85 6.93 6.93 0 001.79-5v-1.23zm51.76-2.3a21.27 21.27 0 01-1.08 6.76 17.36 17.36 0 01-3.14 5.7 15.45 15.45 0 01-5 4 14.89 14.89 0 01-6.75 1.48 15.1 15.1 0 01-6.38-1.38 10.47 10.47 0 01-4.67-4.03h-.14v4.39h-10.2V.36h11.08v21h.14a13.68 13.68 0 014-3.11 12.79 12.79 0 016.28-1.42 14.82 14.82 0 0111.59 5.27 17.5 17.5 0 013.17 5.64 20.17 20.17 0 011.1 6.73zm-10.67 0a10.06 10.06 0 00-.51-3.17 7.9 7.9 0 00-1.52-2.74 8 8 0 00-2.5-1.93 7.67 7.67 0 00-3.44-.74 7.5 7.5 0 00-3.38.74 8.2 8.2 0 00-2.54 2 9.15 9.15 0 00-1.62 9.12 9 9 0 001.62 2.77 8.05 8.05 0 002.54 2 7.37 7.37 0 003.38.75 7.54 7.54 0 003.44-.75 7.67 7.67 0 002.5-2 8.17 8.17 0 001.52-2.8 10.45 10.45 0 00.48-3.25h.03zm15.16 16.96V.36h11.28v51.07zM300 35v1.35c.003.431-.02.862-.07 1.29h-24.38a5.88 5.88 0 00.84 2.56 7.35 7.35 0 001.82 2 8.9 8.9 0 002.5 1.31 8.73 8.73 0 002.87.48A9.33 9.33 0 00288 43a8.9 8.9 0 003-2.54l7.7 4.87a15.67 15.67 0 01-6.25 5.3 20.67 20.67 0 01-9 1.86 21.72 21.72 0 01-7.16-1.18 17.43 17.43 0 01-5.91-3.45 16 16 0 01-4-5.57 18.65 18.65 0 01-1.45-7.57 18.86 18.86 0 011.42-7.46 16.89 16.89 0 013.85-5.68A17.07 17.07 0 01276 18a19.55 19.55 0 017.16-1.29 18.15 18.15 0 016.77 1.29 14.88 14.88 0 015.34 3.62 16.63 16.63 0 013.48 5.74A22.17 22.17 0 01300 35zm-10.2-4.25a6.62 6.62 0 00-1.66-4.53 6.23 6.23 0 00-5-1.89 8.57 8.57 0 00-3 .5 8 8 0 00-2.37 1.39 7 7 0 00-1.62 2.06 6 6 0 00-.67 2.47h14.32z"/>
  </g>
</svg>
