<svg width="16" height="19" viewBox="0 0 16 19" xmlns="http://www.w3.org/2000/svg" focusable="false">
  <path d="M14 16.212c0 .552-.448.788-1 .788h-1c-.552 0-1-.236-1-.788v-1C11 14.107 10.105 13 9 13H7c-1.105 0-2 1.107-2 2.212v1c0 .552-.448.788-1 .788H3c-.552 0-1-.236-1-.788V8.15c0-.133.053-.26.146-.354L7.283 2.66a.999.999 0 011.414 0l5.157 5.156a.503.503 0 01.146.353v8.044zm2-8.587c0-.265-.105-.518-.291-.706L9.41.59A2.001 2.001 0 006.58.583L.294 6.848A1 1 0 000 7.556v9.656C0 18.317.895 19 2 19h3c1.105 0 2-.683 2-1.788v-1a1 1 0 012 0v1C9 18.317 9.895 19 11 19h3c1.105 0 2-.683 2-1.788V7.625z" fill-rule="evenodd"/>
</svg>
